<svg id="Grupo_586" data-name="Grupo 586" xmlns="http://www.w3.org/2000/svg" width="388" height="78.446" viewBox="0 0 388 78.446">
  <g id="Grupo_586-2" data-name="Grupo 586" transform="translate(96.488 26.029)">
    <path id="Caminho_915" data-name="Caminho 915" d="M171.73,66.329l-.041,21.8-3.7-.007.028-14.606h-.045l-5.982,10.4-2.427,0-5.943-10.424h-.045l-.027,14.607-3.7-.007.041-21.8,3.715.007,7.166,13.061h.06l7.185-13.035Z" transform="translate(-149.847 -62.185)" fill="#004b87"/>
    <path id="Caminho_916" data-name="Caminho 916" d="M185.037,66.354l13.707.025-.006,3.326-10.008-.018-.011,6.007,8.09.016-.006,3.326-8.09-.016-.011,5.813,10.651.02-.006,3.326L185,88.151Z" transform="translate(-157.204 -62.199)" fill="#004b87"/>
    <path id="Caminho_917" data-name="Caminho 917" d="M227.468,66.434l-.041,21.8-3.776-.007L213.134,72.788h-.06L213.045,88.2l-3.7-.006.041-21.8,3.67.006,10.607,15.66h.075l.029-15.64Z" transform="translate(-162.301 -62.209)" fill="#004b87"/>
    <path id="Caminho_918" data-name="Caminho 918" d="M243.828,69.79l-6.187-.011.006-3.326,16.135.03-.006,3.326-6.247-.012-.035,18.471-3.7-.007Z" transform="translate(-168.223 -62.22)" fill="#004b87"/>
    <path id="Caminho_919" data-name="Caminho 919" d="M263.427,66.5l13.707.026-.006,3.326-10.008-.019-.011,6.008,8.09.014-.006,3.326-8.09-.014-.011,5.812,10.651.02-.006,3.326L263.386,88.3Z" transform="translate(-173.612 -62.23)" fill="#004b87"/>
    <path id="Caminho_920" data-name="Caminho 920" d="M309.772,66.588l-.041,21.8-2.667,0,.032-16.7h-.045l-7.124,12.3-1.812,0-7.077-12.328h-.045l-.032,16.7-2.666,0,.041-21.8,2.681,0,7.973,14.112h.09l8.011-14.082Z" transform="translate(-178.826 -62.24)" fill="#2ad2c9"/>
    <path id="Caminho_921" data-name="Caminho 921" d="M326.644,82.423a10.067,10.067,0,0,1-3.463-2.343,10.707,10.707,0,0,1-2.21-3.532,12.387,12.387,0,0,1,.016-8.764,10.616,10.616,0,0,1,2.223-3.516,10.121,10.121,0,0,1,3.473-2.323,11.479,11.479,0,0,1,4.452-.846,11.35,11.35,0,0,1,4.282.818,9.987,9.987,0,0,1,5.727,5.763,12.614,12.614,0,0,1-.017,9.049,10.021,10.021,0,0,1-5.749,5.758,11.889,11.889,0,0,1-8.734-.062Zm7.623-2.315a7.86,7.86,0,0,0,2.579-1.747,8.065,8.065,0,0,0,1.721-2.717,9.751,9.751,0,0,0,.013-6.891,8.089,8.089,0,0,0-1.711-2.722,7.742,7.742,0,0,0-2.573-1.751,8.081,8.081,0,0,0-3.167-.635,8.353,8.353,0,0,0-2.7.43,7.467,7.467,0,0,0-2.272,1.215,8.319,8.319,0,0,0-2.816,4.183,9.4,9.4,0,0,0-.387,2.7,9.24,9.24,0,0,0,.593,3.334,8.466,8.466,0,0,0,1.651,2.722,7.591,7.591,0,0,0,2.588,1.832,8.164,8.164,0,0,0,3.317.681A7.97,7.97,0,0,0,334.267,80.108Z" transform="translate(-185.499 -61.099)" fill="#2ad2c9"/>
    <path id="Caminho_922" data-name="Caminho 922" d="M369.09,66.7,360.839,88.48l-2.412,0L350.26,66.663l2.891.006L359.6,84.627h.045l6.566-17.935Z" transform="translate(-191.796 -62.264)" fill="#2ad2c9"/>
    <path id="Caminho_923" data-name="Caminho 923" d="M377.813,66.715l2.682,0-.041,21.8-2.682-.006Z" transform="translate(-197.555 -62.274)" fill="#2ad2c9"/>
    <path id="Caminho_924" data-name="Caminho 924" d="M408.8,66.773l-.041,21.8-2.667-.006.032-16.7h-.045l-7.124,12.3-1.812,0-7.078-12.328h-.044l-.032,16.7-2.666-.006.041-21.8,2.681.006,7.973,14.112h.089l8.011-14.082Z" transform="translate(-199.553 -62.278)" fill="#2ad2c9"/>
    <path id="Caminho_925" data-name="Caminho 925" d="M420.418,66.795l13.333.025,0,2.457-10.651-.02-.013,7.3,8.748.017,0,2.457-8.749-.017-.013,7.131,11.295.021,0,2.457-13.977-.025Z" transform="translate(-206.472 -62.291)" fill="#2ad2c9"/>
    <path id="Caminho_926" data-name="Caminho 926" d="M460.21,66.869l-.041,21.8-2.711-.006L445.281,71.455h-.059l-.032,17.182-2.667,0,.041-21.8,2.637,0,12.252,17.385.059,0,.032-17.363Z" transform="translate(-211.108 -62.3)" fill="#2ad2c9"/>
    <path id="Caminho_927" data-name="Caminho 927" d="M475.077,69.354l-6.516-.012,0-2.457,15.775.029,0,2.457-6.591-.013-.036,19.34-2.666,0Z" transform="translate(-216.558 -62.31)" fill="#2ad2c9"/>
    <path id="Caminho_928" data-name="Caminho 928" d="M497.429,82.743a10.071,10.071,0,0,1-3.463-2.343,10.7,10.7,0,0,1-2.211-3.533,12.382,12.382,0,0,1,.017-8.764A10.6,10.6,0,0,1,494,64.588a10.127,10.127,0,0,1,3.473-2.324,11.889,11.889,0,0,1,8.734-.028A9.987,9.987,0,0,1,511.928,68a12.612,12.612,0,0,1-.017,9.048,10.022,10.022,0,0,1-5.748,5.758,11.894,11.894,0,0,1-8.734-.062Zm7.622-2.315a7.861,7.861,0,0,0,2.58-1.748,8.062,8.062,0,0,0,1.721-2.716,9.748,9.748,0,0,0,.013-6.892,8.076,8.076,0,0,0-1.71-2.722,7.762,7.762,0,0,0-2.574-1.75,8.066,8.066,0,0,0-3.167-.636,8.349,8.349,0,0,0-2.7.43,7.455,7.455,0,0,0-2.272,1.216,8.319,8.319,0,0,0-2.816,4.183,9.424,9.424,0,0,0-.387,2.7,9.236,9.236,0,0,0,.593,3.334,8.441,8.441,0,0,0,1.65,2.722,7.6,7.6,0,0,0,2.588,1.833,8.167,8.167,0,0,0,3.318.68A7.982,7.982,0,0,0,505.051,80.428Z" transform="translate(-221.247 -61.166)" fill="#2ad2c9"/>
  </g>
  <g id="Grupo_589" data-name="Grupo 589">
    <g id="Grupo_587" data-name="Grupo 587" transform="translate(10.298 10.919)">
      <path id="Caminho_929" data-name="Caminho 929" d="M61.812,97.985h-.026c-6.441-.013-11.672-5.511-11.661-12.257,0-.333.015-.669.043-1.006a12.1,12.1,0,0,1-9.329-12A12.369,12.369,0,0,1,45.353,63.1a11.741,11.741,0,0,1-.346-2.842,11.588,11.588,0,0,1,3.17-8.014,10.593,10.593,0,0,1,6.763-3.307,9.408,9.408,0,0,1,8.985-6.948h.021a8.985,8.985,0,0,1,2.092.255l1.215.291-.092,54.14-.961.408A11.135,11.135,0,0,1,61.812,97.985ZM55.873,52.058a7.428,7.428,0,0,0-5.405,2.367,8.437,8.437,0,0,0-2.3,5.838,8.672,8.672,0,0,0,.507,2.921l.416,1.169-1.037.682A9.162,9.162,0,0,0,44,72.732a8.836,8.836,0,0,0,8.056,9.062L53.9,81.9l-.39,1.808a9.624,9.624,0,0,0-.225,2.025,8.823,8.823,0,0,0,8.505,9.09h.018A7.96,7.96,0,0,0,64,94.514l.084-49.36c-.053,0-.107,0-.158,0a6.349,6.349,0,0,0-6.152,5.582l-.213,1.392-1.675-.068Z" transform="translate(-40.84 -41.989)" fill="#004b87"/>
    </g>
    <g id="Grupo_588" data-name="Grupo 588" transform="translate(41.584 12.4)">
      <path id="Caminho_930" data-name="Caminho 930" d="M87.813,98.365a7.345,7.345,0,0,1-6.515-3.96,6.57,6.57,0,0,1-.823-4.4l.048-.621,3.154.227-.05.645a3.625,3.625,0,0,0,.516,2.768A4.116,4.116,0,0,0,88.672,95.1a4.015,4.015,0,0,0,2.938-3.937,12.248,12.248,0,0,0-.25-1.6c-.329-1.654-.739-3.714.746-5.365,1.374-1.527,3.339-1.5,4.921-1.472a13.145,13.145,0,0,0,1.448-.028,4.228,4.228,0,0,0,3.016-1.965,4.065,4.065,0,0,0,.595-3.4,10.228,10.228,0,0,0-2.312-3.364c-.489-.551-1-1.12-1.461-1.736-1.8-2.378-2.708-6-.461-8.343A7.484,7.484,0,0,1,99.441,62.7c.174-.106.347-.211.514-.324a5.584,5.584,0,0,0,2.25-4.717,5.857,5.857,0,0,0-3.768-5.356,6.376,6.376,0,0,0-6.722,1.067,1.582,1.582,0,0,1-2.64-.936,6.708,6.708,0,0,0-5.451-5.45l.49-3.124a9.92,9.92,0,0,1,7.433,5.811,9.571,9.571,0,0,1,8.2-.244,8.979,8.979,0,0,1,5.617,8.194A8.77,8.77,0,0,1,101.726,65c-.206.14-.421.272-.636.4a5.008,5.008,0,0,0-.957.68c-.911.949-.318,2.9.7,4.244.388.515.832,1.014,1.3,1.542a12.686,12.686,0,0,1,2.96,4.5,7.15,7.15,0,0,1-.961,6.1,7.314,7.314,0,0,1-5.349,3.375,15.614,15.614,0,0,1-1.807.043c-1.278-.016-2.14,0-2.522.426s-.263,1.288,0,2.631a14.667,14.667,0,0,1,.305,2.033,7.209,7.209,0,0,1-5.321,7.183A6.681,6.681,0,0,1,87.813,98.365Z" transform="translate(-80.408 -43.863)" fill="#2ad2c9"/>
    </g>
    <path id="Caminho_931" data-name="Caminho 931" d="M67.039,32.133A35.27,35.27,0,1,1,31.769,67.4,35.309,35.309,0,0,1,67.039,32.133m0-3.953A39.223,39.223,0,1,0,106.262,67.4,39.222,39.222,0,0,0,67.039,28.18Z" transform="translate(-27.816 -28.18)" fill="#2ad2c9"/>
  </g>
</svg>
