<svg xmlns="http://www.w3.org/2000/svg" width="980" height="560" viewBox="0 0 980 560" role="img" aria-labelledby="title desc">
  <title id="title">Painel principal</title>
  <desc id="desc">Esquema do painel principal da gestão de sócios.</desc>
  <rect width="980" height="560" fill="#f4f8fb"/>
  <rect x="40" y="42" width="900" height="476" rx="8" fill="#ffffff" stroke="#d8e5ea"/>
  <rect x="40" y="42" width="900" height="86" rx="8" fill="#ffffff"/>
  <text x="76" y="92" font-family="Arial, sans-serif" font-size="24" font-weight="700" fill="#071b4d">Gestão de Sócios</text>
  <text x="76" y="116" font-family="Arial, sans-serif" font-size="14" fill="#526678">Nome do utilizador e perfil</text>

  <rect x="492" y="70" width="170" height="42" rx="8" fill="#ffffff" stroke="#b8cbd2"/>
  <text x="577" y="97" text-anchor="middle" font-family="Arial, sans-serif" font-size="15" font-weight="700" fill="#071b4d">Gestor Admins</text>
  <rect x="674" y="70" width="54" height="42" rx="8" fill="#ffffff" stroke="#b8cbd2"/>
  <text x="701" y="98" text-anchor="middle" font-family="Arial, sans-serif" font-size="24" font-weight="700" fill="#071b4d">☰</text>
  <rect x="740" y="70" width="150" height="42" rx="8" fill="#0ab47d"/>
  <text x="815" y="98" text-anchor="middle" font-family="Arial, sans-serif" font-size="17" font-weight="700" fill="#ffffff">+ Novo sócio</text>

  <rect x="76" y="158" width="828" height="96" rx="8" fill="#f8fbfa" stroke="#d8e5ea"/>
  <rect x="100" y="184" width="520" height="42" rx="8" fill="#ffffff" stroke="#b8cbd2"/>
  <text x="122" y="211" font-family="Arial, sans-serif" font-size="16" fill="#526678">Pesquisar por nº, nome, NIF, localidade, email...</text>
  <rect x="642" y="184" width="98" height="42" rx="8" fill="#e3f8f0" stroke="#0ab47d"/>
  <text x="691" y="211" text-anchor="middle" font-family="Arial, sans-serif" font-size="15" font-weight="700" fill="#071b4d">Sócios</text>
  <rect x="752" y="184" width="126" height="42" rx="8" fill="#fff6f4" stroke="#f4b7ae"/>
  <text x="815" y="211" text-anchor="middle" font-family="Arial, sans-serif" font-size="15" font-weight="700" fill="#b42318">Em atraso</text>

  <rect x="76" y="284" width="828" height="190" rx="8" fill="#ffffff" stroke="#d8e5ea"/>
  <text x="104" y="324" font-family="Arial, sans-serif" font-size="20" font-weight="700" fill="#071b4d">Sócios registados</text>
  <line x1="76" y1="350" x2="904" y2="350" stroke="#d8e5ea"/>
  <text x="104" y="382" font-family="Arial, sans-serif" font-size="14" font-weight="700" fill="#385466">Nº</text>
  <text x="170" y="382" font-family="Arial, sans-serif" font-size="14" font-weight="700" fill="#385466">Nome</text>
  <text x="384" y="382" font-family="Arial, sans-serif" font-size="14" font-weight="700" fill="#385466">Localidade</text>
  <text x="560" y="382" font-family="Arial, sans-serif" font-size="14" font-weight="700" fill="#385466">Quotas</text>
  <text x="762" y="382" font-family="Arial, sans-serif" font-size="14" font-weight="700" fill="#385466">Ações</text>
  <line x1="76" y1="398" x2="904" y2="398" stroke="#d8e5ea"/>
  <text x="104" y="434" font-family="Arial, sans-serif" font-size="16" fill="#071b4d">67</text>
  <text x="170" y="434" font-family="Arial, sans-serif" font-size="16" font-weight="700" fill="#071b4d">Nome do sócio</text>
  <text x="384" y="434" font-family="Arial, sans-serif" font-size="16" fill="#071b4d">Localidade</text>
  <text x="560" y="434" font-family="Arial, sans-serif" font-size="16" fill="#071b4d">Pagas até...</text>
  <rect x="752" y="412" width="40" height="38" rx="8" fill="#ffffff" stroke="#b8cbd2"/>
  <text x="772" y="437" text-anchor="middle" font-family="Arial, sans-serif" font-size="18" fill="#071b4d">✎</text>

  <circle cx="706" cy="52" r="16" fill="#0ab47d"/>
  <text x="706" y="58" text-anchor="middle" font-family="Arial, sans-serif" font-size="16" font-weight="700" fill="#ffffff">1</text>
  <circle cx="826" cy="52" r="16" fill="#0ab47d"/>
  <text x="826" y="58" text-anchor="middle" font-family="Arial, sans-serif" font-size="16" font-weight="700" fill="#ffffff">2</text>
  <circle cx="606" cy="164" r="16" fill="#0ab47d"/>
  <text x="606" y="170" text-anchor="middle" font-family="Arial, sans-serif" font-size="16" font-weight="700" fill="#ffffff">3</text>
  <circle cx="784" cy="394" r="16" fill="#0ab47d"/>
  <text x="784" y="400" text-anchor="middle" font-family="Arial, sans-serif" font-size="16" font-weight="700" fill="#ffffff">4</text>
</svg>
